<?xml version="1.0" standalone="no"?><!DOCTYPE svg PUBLIC "-//W3C//DTD SVG 1.1//EN" "http://www.w3.org/Graphics/SVG/1.1/DTD/svg11.dtd"><svg t="1625987882431" class="icon" viewBox="0 0 1024 1024" version="1.1" xmlns="http://www.w3.org/2000/svg" p-id="7157" data-darkreader-inline-fill="" xmlns:xlink="http://www.w3.org/1999/xlink" width="200" height="200"><defs><style type="text/css">[data-darkreader-inline-fill] { fill: var(--darkreader-inline-fill)  !important; }
</style></defs><path d="M553.7792 400.384a13.5168 13.5168 0 0 0-5.7344-1.4336h-44.6464a16.896 16.896 0 0 0-13.0048 7.168 15.6672 15.6672 0 0 0-2.8672 8.704v80.5888a17.7152 17.7152 0 0 0 10.24 15.872h50.4832a17.5104 17.5104 0 0 0 14.336-7.168 25.9072 25.9072 0 0 0 1.4336-8.704v-80.5888a16.896 16.896 0 0 0-10.24-14.4384zM306.0736 420.5568a5.632 5.632 0 0 0-5.7344-4.3008c-2.8672 0-5.3248 1.9456-7.168 5.7344q-18.7392 132.608-20.48 139.6736v4.3008l2.8672 2.8672a11.6736 11.6736 0 0 0 8.6016 2.9696h31.744A11.3664 11.3664 0 0 0 327.68 563.2v-1.4336q0-1.4336-14.4384-97.8944z" fill="#BFCBD8" p-id="7158" data-darkreader-inline-fill="" style="--darkreader-inline-fill:#2b3846;"></path><path d="M844.5952 204.8h-665.6A77.0048 77.0048 0 0 0 102.4 281.8048v460.8A77.0048 77.0048 0 0 0 179.4048 819.2h665.6A77.0048 77.0048 0 0 0 921.6 742.1952v-460.8A77.0048 77.0048 0 0 0 844.5952 204.8zM348.16 653.824l-1.7408-8.704c-5.7344-24.064-9.1136-37.4784-10.24-40.3456a9.1136 9.1136 0 0 0-8.6016-5.7344h-54.5792q-7.168 0-10.24 8.6016l-10.24 46.08h-57.344q1.536-5.7344 46.08-200.192 14.4384-61.44 15.872-64.7168a26.0096 26.0096 0 0 1 25.9072-18.7392H317.44a26.0096 26.0096 0 0 1 25.9072 17.3056c0.9216 2.8672 2.8672 10.9568 5.7344 24.4736q10.24 40.2432 27.3408 120.9344l28.7744 120.9344z m273.3056-151.1424a34.9184 34.9184 0 0 1-23.04 35.9424 44.7488 44.7488 0 0 1-11.5712 1.4336h-99.328v113.7664H430.08v-283.648h155.3408a33.6896 33.6896 0 0 1 31.744 18.944 34.816 34.816 0 0 1 4.3008 20.48zM828.8256 399.36h-43.2128a16.896 16.896 0 0 0-13.0048 7.168 16.5888 16.5888 0 0 0-2.8672 8.704v194.56A17.7152 17.7152 0 0 0 781.312 624.64h47.5136v28.7744h-174.08V624.64h40.3456a15.7696 15.7696 0 0 0 15.872-10.24 16.1792 16.1792 0 0 0 1.4336-7.168V416.256A16.7936 16.7936 0 0 0 700.6208 399.36h-46.08v-29.184h174.08z" fill="#BFCBD8" p-id="7159" data-darkreader-inline-fill="" style="--darkreader-inline-fill:#2b3846;"></path></svg>